{
  "accessors": [
    {
      "bufferView": 2,
      "componentType": 5126,
      "count": 1562,
      "max": [
        74.08536529541016,
        35.27067184448242,
        52.19768142700195
      ],
      "min": [
        -74.08536529541016,
        -35.56889724731445,
        -0.5741090774536133
      ],
      "type": "VEC3"
    },
    {
      "bufferView": 2,
      "byteOffset": 18744,
      "componentType": 5126,
      "count": 1562,
      "max": [
        1.0,
        1.0,
        1.0
      ],
      "min": [
        -1.0,
        -1.0,
        -1.0
      ],
      "type": "VEC3"
    },
    {
      "bufferView": 1,
      "componentType": 5126,
      "count": 1562,
      "max": [
        0.997880220413208,
        1.0017067193984985
      ],
      "min": [
        0.00755076389759779,
        0.4799535274505615
      ],
      "type": "VEC2"
    },
    {
      "bufferView": 1,
      "byteOffset": 12496,
      "componentType": 5126,
      "count": 1562,
      "max": [
        0.997880220413208,
        1.0017067193984985
      ],
      "min": [
        0.00755076389759779,
        0.4799535274505615
      ],
      "type": "VEC2"
    },
    {
      "bufferView": 1,
      "byteOffset": 24992,
      "componentType": 5126,
      "count": 1562,
      "max": [
        0.997880220413208,
        1.0017067193984985
      ],
      "min": [
        0.00755076389759779,
        0.4799535274505615
      ],
      "type": "VEC2"
    },
    {
      "bufferView": 0,
      "componentType": 5125,
      "count": 4020,
      "type": "SCALAR"
    },
    {
      "bufferView": 2,
      "byteOffset": 37488,
      "componentType": 5126,
      "count": 3137,
      "max": [
        74.08538818359375,
        0.23473739624023438,
        20.158939361572266
      ],
      "min": [
        -74.08538818359375,
        -70.33941650390625,
        -0.7599983215332031
      ],
      "type": "VEC3"
    },
    {
      "bufferView": 2,
      "byteOffset": 75132,
      "componentType": 5126,
      "count": 3137,
      "max": [
        1.0,
        1.0,
        1.0
      ],
      "min": [
        -1.0,
        -0.9999996423721313,
        -1.0
      ],
      "type": "VEC3"
    },
    {
      "bufferView": 1,
      "byteOffset": 37488,
      "componentType": 5126,
      "count": 3137,
      "max": [
        0.995537519454956,
        0.4570566713809967
      ],
      "min": [
        0.004535107873380184,
        0.001386646181344986
      ],
      "type": "VEC2"
    },
    {
      "bufferView": 1,
      "byteOffset": 62584,
      "componentType": 5126,
      "count": 3137,
      "max": [
        0.995537519454956,
        0.4570566713809967
      ],
      "min": [
        0.004535107873380184,
        0.001386646181344986
      ],
      "type": "VEC2"
    },
    {
      "bufferView": 1,
      "byteOffset": 87680,
      "componentType": 5126,
      "count": 3137,
      "max": [
        0.995537519454956,
        0.4570566713809967
      ],
      "min": [
        0.004535107873380184,
        0.001386646181344986
      ],
      "type": "VEC2"
    },
    {
      "bufferView": 0,
      "byteOffset": 16080,
      "componentType": 5125,
      "count": 7902,
      "type": "SCALAR"
    },
    {
      "bufferView": 3,
      "componentType": 5126,
      "count": 61,
      "max": [
        2.0
      ],
      "min": [
        0.0
      ],
      "type": "SCALAR"
    },
    {
      "bufferView": 4,
      "componentType": 5126,
      "count": 61,
      "max": [
        0.001883111777715385,
        0.0,
        0.0,
        1.0
      ],
      "min": [
        -0.6628549695014954,
        0.0,
        0.0,
        0.7487478256225586
      ],
      "type": "VEC4"
    }
  ],
  "animations": [
    {
      "channels": [
        {
          "sampler": 0,
          "target": {
            "node": 7,
            "path": "rotation"
          }
        }
      ],
      "name": "Take 001",
      "samplers": [
        {
          "input": 12,
          "interpolation": "LINEAR",
          "output": 13
        }
      ]
    }
  ],
  "asset": {
    "extras": {
      "author": "Medhatelo (https://sketchfab.com/Medhatelo)",
      "license": "CC-BY-4.0 (http://creativecommons.org/licenses/by/4.0/)",
      "source": "https://sketchfab.com/3d-models/tool-box-6b6e386e8e8546a2962df268c90f969a",
      "title": "Tool Box"
    },
    "generator": "Sketchfab-12.68.0",
    "version": "2.0"
  },
  "bufferViews": [
    {
      "buffer": 0,
      "byteLength": 47688,
      "name": "floatBufferViews",
      "target": 34963
    },
    {
      "buffer": 0,
      "byteLength": 112776,
      "byteOffset": 47688,
      "byteStride": 8,
      "name": "floatBufferViews",
      "target": 34962
    },
    {
      "buffer": 0,
      "byteLength": 112776,
      "byteOffset": 160464,
      "byteStride": 12,
      "name": "floatBufferViews",
      "target": 34962
    },
    {
      "buffer": 0,
      "byteLength": 244,
      "byteOffset": 273240,
      "name": "floatBufferViews"
    },
    {
      "buffer": 0,
      "byteLength": 976,
      "byteOffset": 273484,
      "byteStride": 16,
      "name": "floatBufferViews"
    }
  ],
  "buffers": [
    {
      "byteLength": 274460,
      "uri": "scene.bin"
    }
  ],
  "images": [
    {
      "uri": "textures/01_-_Default_baseColor.png"
    }
  ],
  "materials": [
    {
      "doubleSided": true,
      "name": "01_-_Default",
      "pbrMetallicRoughness": {
        "baseColorFactor": [
          0.8736661585365854,
          0.8736661585365854,
          0.8736661585365854,
          1.0
        ],
        "baseColorTexture": {
          "index": 0
        },
        "metallicFactor": 0.8614710365853658,
        "roughnessFactor": 0.8929713596
      }
    }
  ],
  "meshes": [
    {
      "name": "Box_Base_01 - Default_0",
      "primitives": [
        {
          "attributes": {
            "NORMAL": 1,
            "POSITION": 0,
            "TEXCOORD_0": 2,
            "TEXCOORD_1": 3,
            "TEXCOORD_2": 4
          },
          "indices": 5,
          "material": 0,
          "mode": 4
        }
      ]
    },
    {
      "name": "Cover_Box_01 - Default_0",
      "primitives": [
        {
          "attributes": {
            "NORMAL": 7,
            "POSITION": 6,
            "TEXCOORD_0": 8,
            "TEXCOORD_1": 9,
            "TEXCOORD_2": 10
          },
          "indices": 11,
          "material": 0,
          "mode": 4
        }
      ]
    }
  ],
  "nodes": [
    {
      "children": [
        1
      ],
      "matrix": [
        1.0,
        0.0,
        0.0,
        0.0,
        0.0,
        2.220446049250313e-16,
        -1.0,
        0.0,
        0.0,
        1.0,
        2.220446049250313e-16,
        0.0,
        0.0,
        0.0,
        0.0,
        1.0
      ],
      "name": "Sketchfab_model"
    },
    {
      "children": [
        2
      ],
      "matrix": [
        1.0,
        0.0,
        0.0,
        0.0,
        0.0,
        0.0,
        1.0,
        0.0,
        0.0,
        -1.0,
        0.0,
        0.0,
        0.0,
        0.0,
        0.0,
        1.0
      ],
      "name": "feb27609d9e1490882f094cd8980df6c.fbx"
    },
    {
      "children": [
        3
      ],
      "name": "Object_2"
    },
    {
      "children": [
        4
      ],
      "name": "RootNode"
    },
    {
      "children": [
        5,
        7
      ],
      "name": "Box_Base",
      "rotation": [
        8.146034247147327e-08,
        0.0,
        0.0,
        1.0
      ],
      "scale": [
        2.5399999618530273,
        2.5399999618530273,
        2.5399999618530273
      ],
      "translation": [
        32.2568359375,
        0.0,
        -61.77764892578125
      ]
    },
    {
      "children": [
        6
      ],
      "matrix": [
        1.0,
        0.0,
        0.0,
        0.0,
        0.0,
        6.123233995736766e-17,
        -1.0,
        0.0,
        -0.0,
        1.0,
        6.123233995736766e-17,
        0.0,
        0.0,
        0.0,
        0.0,
        1.0
      ],
      "name": "Object_5"
    },
    {
      "mesh": 0,
      "name": "Box_Base_01 - Default_0"
    },
    {
      "children": [
        8
      ],
      "name": "Cover_Box",
      "rotation": [
        -7.105427357601002e-15,
        -0.0,
        0.0,
        1.0
      ],
      "translation": [
        1.9073486328125e-06,
        49.7867431640625,
        -34.953243255615234
      ]
    },
    {
      "children": [
        9
      ],
      "matrix": [
        1.0,
        0.0,
        0.0,
        0.0,
        0.0,
        6.123233995736766e-17,
        -1.0,
        0.0,
        -0.0,
        1.0,
        6.123233995736766e-17,
        0.0,
        0.0,
        0.0,
        0.0,
        1.0
      ],
      "name": "Object_8"
    },
    {
      "mesh": 1,
      "name": "Cover_Box_01 - Default_0"
    }
  ],
  "samplers": [
    {
      "magFilter": 9729,
      "minFilter": 9987,
      "wrapS": 10497,
      "wrapT": 10497
    }
  ],
  "scene": 0,
  "scenes": [
    {
      "name": "Sketchfab_Scene",
      "nodes": [
        0
      ]
    }
  ],
  "textures": [
    {
      "sampler": 0,
      "source": 0
    }
  ]
}
